<svg xmlns="http://www.w3.org/2000/svg" viewBox="0 0 64 64" role="img" aria-label="Gear icon">
  <g fill="#000000">
    <path d="M36.6 4.6l2 6.2a19.7 19.7 0 0 1 5.1 2.1l5.7-3.4 5.1 5.1-3.4 5.7a19.7 19.7 0 0 1 2.1 5.1l6.2 2v7.2l-6.2 2a19.7 19.7 0 0 1-2.1 5.1l3.4 5.7-5.1 5.1-5.7-3.4a19.7 19.7 0 0 1-5.1 2.1l-2 6.2h-7.2l-2-6.2a19.7 19.7 0 0 1-5.1-2.1l-5.7 3.4-5.1-5.1 3.4-5.7a19.7 19.7 0 0 1-2.1-5.1l-6.2-2v-7.2l6.2-2a19.7 19.7 0 0 1 2.1-5.1l-3.4-5.7 5.1-5.1 5.7 3.4a19.7 19.7 0 0 1 5.1-2.1l2-6.2h7.2zm-3.6 16.4a11 11 0 1 0 0 22 11 11 0 0 0 0-22z"/>
  </g>
</svg>
